<?xml version="1.0" encoding="utf-8" standalone="no"?>
<!DOCTYPE svg PUBLIC "-//W3C//DTD SVG 1.1//EN"
  "http://www.w3.org/Graphics/SVG/1.1/DTD/svg11.dtd">
<svg xmlns:xlink="http://www.w3.org/1999/xlink" width="594.2376pt" height="394.7976pt" viewBox="0 0 594.2376 394.7976" xmlns="http://www.w3.org/2000/svg" version="1.1">
 <metadata>
  <rdf:RDF xmlns:dc="http://purl.org/dc/elements/1.1/" xmlns:cc="http://creativecommons.org/ns#" xmlns:rdf="http://www.w3.org/1999/02/22-rdf-syntax-ns#">
   <cc:Work>
    <dc:type rdf:resource="http://purl.org/dc/dcmitype/StillImage"/>
    <dc:format>image/svg+xml</dc:format>
    <dc:creator>
     <cc:Agent>
      <dc:title>matplotlib</dc:title>
     </cc:Agent>
    </dc:creator>
   </cc:Work>
  </rdf:RDF>
 </metadata>
 <defs>
  <style type="text/css">*{stroke-linejoin: round; stroke-linecap: butt}</style>
 </defs>
 <g id="figure_1">
  <g id="patch_1">
   <path d="M 0 394.7976 
L 594.2376 394.7976 
L 594.2376 0 
L 0 0 
z
" style="fill: #ffffff"/>
  </g>
  <g id="axes_1">
   <g id="patch_2">
    <path d="M 77.250888 335.57796 
L 582.352848 335.57796 
L 582.352848 7.895952 
L 77.250888 7.895952 
z
" style="fill: #ffffff"/>
   </g>
   <g id="PathCollection_1">
    <path d="M 414.98791 122.987635 
C 417.521116 122.987635 419.950909 121.981182 421.742156 120.189935 
C 423.533403 118.398688 424.539856 115.968895 424.539856 113.435689 
C 424.539856 110.902483 423.533403 108.47269 421.742156 106.681443 
C 419.950909 104.890197 417.521116 103.883743 414.98791 103.883743 
C 412.454704 103.883743 410.024911 104.890197 408.233664 106.681443 
C 406.442417 108.47269 405.435964 110.902483 405.435964 113.435689 
C 405.435964 115.968895 406.442417 118.398688 408.233664 120.189935 
C 410.024911 121.981182 412.454704 122.987635 414.98791 122.987635 
z
" clip-path="url(#pcdaad02203)" style="fill: #1f77b4; fill-opacity: 0.85; stroke: #1f77b4; stroke-opacity: 0.85"/>
    <path d="M 110.329496 127.726164 
C 113.684079 127.726164 116.901719 126.393374 119.273768 124.021326 
C 121.645816 121.649277 122.978606 118.431637 122.978606 115.077054 
C 122.978606 111.72247 121.645816 108.50483 119.273768 106.132782 
C 116.901719 103.760733 113.684079 102.427943 110.329496 102.427943 
C 106.974912 102.427943 103.757272 103.760733 101.385224 106.132782 
C 99.013175 108.50483 97.680385 111.72247 97.680385 115.077054 
C 97.680385 118.431637 99.013175 121.649277 101.385224 124.021326 
C 103.757272 126.393374 106.974912 127.726164 110.329496 127.726164 
z
" clip-path="url(#pcdaad02203)" style="fill: #1f77b4; fill-opacity: 0.85; stroke: #1f77b4; stroke-opacity: 0.85"/>
    <path d="M 505.69527 35.70792 
C 507.716962 35.70792 509.656123 34.904693 511.085675 33.475141 
C 512.515228 32.045589 513.318455 30.106428 513.318455 28.084735 
C 513.318455 26.063043 512.515228 24.123882 511.085675 22.69433 
C 509.656123 21.264777 507.716962 20.46155 505.69527 20.46155 
C 503.673577 20.46155 501.734416 21.264777 500.304864 22.69433 
C 498.875312 24.123882 498.072085 26.063043 498.072085 28.084735 
C 498.072085 30.106428 498.875312 32.045589 500.304864 33.475141 
C 501.734416 34.904693 503.673577 35.70792 505.69527 35.70792 
z
" clip-path="url(#pcdaad02203)" style="fill: #1f77b4; fill-opacity: 0.85; stroke: #1f77b4; stroke-opacity: 0.85"/>
    <path d="M 508.160144 38.990649 
C 510.181836 38.990649 512.120997 38.187422 513.550549 36.75787 
C 514.980102 35.328318 515.783328 33.389157 515.783328 31.367464 
C 515.783328 29.345772 514.980102 27.406611 513.550549 25.977059 
C 512.120997 24.547506 510.181836 23.744279 508.160144 23.744279 
C 506.138451 23.744279 504.19929 24.547506 502.769738 25.977059 
C 501.340186 27.406611 500.536959 29.345772 500.536959 31.367464 
C 500.536959 33.389157 501.340186 35.328318 502.769738 36.75787 
C 504.19929 38.187422 506.138451 38.990649 508.160144 38.990649 
z
" clip-path="url(#pcdaad02203)" style="fill: #1f77b4; fill-opacity: 0.85; stroke: #1f77b4; stroke-opacity: 0.85"/>
    <path d="M 555.485722 322.858957 
C 557.048848 322.858957 558.548163 322.23792 559.653459 321.132624 
C 560.758756 320.027327 561.379793 318.528012 561.379793 316.964887 
C 561.379793 315.401761 560.758756 313.902446 559.653459 312.79715 
C 558.548163 311.691853 557.048848 311.070816 555.485722 311.070816 
C 553.922597 311.070816 552.423282 311.691853 551.317985 312.79715 
C 550.212689 313.902446 549.591652 315.401761 549.591652 316.964887 
C 549.591652 318.528012 550.212689 320.027327 551.317985 321.132624 
C 552.423282 322.23792 553.922597 322.858957 555.485722 322.858957 
z
" clip-path="url(#pcdaad02203)" style="fill: #1f77b4; fill-opacity: 0.85; stroke: #1f77b4; stroke-opacity: 0.85"/>
   </g>
   <g id="matplotlib.axis_1">
    <g id="xtick_1">
     <g id="line2d_1">
      <path d="M 125.611714 335.57796 
L 125.611714 7.895952 
" clip-path="url(#pcdaad02203)" style="fill: none; stroke: #b0b0b0; stroke-opacity: 0.18; stroke-width: 0.8; stroke-linecap: square"/>
     </g>
     <g id="line2d_2">
      <defs>
       <path id="m27992161ad" d="M 0 0 
L 0 3.5 
" style="stroke: #000000; stroke-width: 0.8"/>
      </defs>
      <g>
       <use xlink:href="#m27992161ad" x="125.611714" y="335.57796" style="stroke: #000000; stroke-width: 0.8"/>
      </g>
     </g>
     <g id="text_1">
      <!-- 2 -->
      <g transform="translate(122.748589 349.416554) scale(0.09 -0.09)">
       <defs>
        <path id="DejaVuSans-32" d="M 1228 531 
L 3431 531 
L 3431 0 
L 469 0 
L 469 531 
Q 828 903 1448 1529 
Q 2069 2156 2228 2338 
Q 2531 2678 2651 2914 
Q 2772 3150 2772 3378 
Q 2772 3750 2511 3984 
Q 2250 4219 1831 4219 
Q 1534 4219 1204 4116 
Q 875 4013 500 3803 
L 500 4441 
Q 881 4594 1212 4672 
Q 1544 4750 1819 4750 
Q 2544 4750 2975 4387 
Q 3406 4025 3406 3419 
Q 3406 3131 3298 2873 
Q 3191 2616 2906 2266 
Q 2828 2175 2409 1742 
Q 1991 1309 1228 531 
z
" transform="scale(0.015625)"/>
       </defs>
       <use xlink:href="#DejaVuSans-32"/>
      </g>
     </g>
    </g>
    <g id="xtick_2">
     <g id="line2d_3">
      <path d="M 233.080216 335.57796 
L 233.080216 7.895952 
" clip-path="url(#pcdaad02203)" style="fill: none; stroke: #b0b0b0; stroke-opacity: 0.18; stroke-width: 0.8; stroke-linecap: square"/>
     </g>
     <g id="line2d_4">
      <g>
       <use xlink:href="#m27992161ad" x="233.080216" y="335.57796" style="stroke: #000000; stroke-width: 0.8"/>
      </g>
     </g>
     <g id="text_2">
      <!-- 3 -->
      <g transform="translate(230.217091 349.416554) scale(0.09 -0.09)">
       <defs>
        <path id="DejaVuSans-33" d="M 2597 2516 
Q 3050 2419 3304 2112 
Q 3559 1806 3559 1356 
Q 3559 666 3084 287 
Q 2609 -91 1734 -91 
Q 1441 -91 1130 -33 
Q 819 25 488 141 
L 488 750 
Q 750 597 1062 519 
Q 1375 441 1716 441 
Q 2309 441 2620 675 
Q 2931 909 2931 1356 
Q 2931 1769 2642 2001 
Q 2353 2234 1838 2234 
L 1294 2234 
L 1294 2753 
L 1863 2753 
Q 2328 2753 2575 2939 
Q 2822 3125 2822 3475 
Q 2822 3834 2567 4026 
Q 2313 4219 1838 4219 
Q 1578 4219 1281 4162 
Q 984 4106 628 3988 
L 628 4550 
Q 988 4650 1302 4700 
Q 1616 4750 1894 4750 
Q 2613 4750 3031 4423 
Q 3450 4097 3450 3541 
Q 3450 3153 3228 2886 
Q 3006 2619 2597 2516 
z
" transform="scale(0.015625)"/>
       </defs>
       <use xlink:href="#DejaVuSans-33"/>
      </g>
     </g>
    </g>
    <g id="xtick_3">
     <g id="line2d_5">
      <path d="M 340.548718 335.57796 
L 340.548718 7.895952 
" clip-path="url(#pcdaad02203)" style="fill: none; stroke: #b0b0b0; stroke-opacity: 0.18; stroke-width: 0.8; stroke-linecap: square"/>
     </g>
     <g id="line2d_6">
      <g>
       <use xlink:href="#m27992161ad" x="340.548718" y="335.57796" style="stroke: #000000; stroke-width: 0.8"/>
      </g>
     </g>
     <g id="text_3">
      <!-- 4 -->
      <g transform="translate(337.685593 349.416554) scale(0.09 -0.09)">
       <defs>
        <path id="DejaVuSans-34" d="M 2419 4116 
L 825 1625 
L 2419 1625 
L 2419 4116 
z
M 2253 4666 
L 3047 4666 
L 3047 1625 
L 3713 1625 
L 3713 1100 
L 3047 1100 
L 3047 0 
L 2419 0 
L 2419 1100 
L 313 1100 
L 313 1709 
L 2253 4666 
z
" transform="scale(0.015625)"/>
       </defs>
       <use xlink:href="#DejaVuSans-34"/>
      </g>
     </g>
    </g>
    <g id="xtick_4">
     <g id="line2d_7">
      <path d="M 448.01722 335.57796 
L 448.01722 7.895952 
" clip-path="url(#pcdaad02203)" style="fill: none; stroke: #b0b0b0; stroke-opacity: 0.18; stroke-width: 0.8; stroke-linecap: square"/>
     </g>
     <g id="line2d_8">
      <g>
       <use xlink:href="#m27992161ad" x="448.01722" y="335.57796" style="stroke: #000000; stroke-width: 0.8"/>
      </g>
     </g>
     <g id="text_4">
      <!-- 5 -->
      <g transform="translate(445.154095 349.416554) scale(0.09 -0.09)">
       <defs>
        <path id="DejaVuSans-35" d="M 691 4666 
L 3169 4666 
L 3169 4134 
L 1269 4134 
L 1269 2991 
Q 1406 3038 1543 3061 
Q 1681 3084 1819 3084 
Q 2600 3084 3056 2656 
Q 3513 2228 3513 1497 
Q 3513 744 3044 326 
Q 2575 -91 1722 -91 
Q 1428 -91 1123 -41 
Q 819 9 494 109 
L 494 744 
Q 775 591 1075 516 
Q 1375 441 1709 441 
Q 2250 441 2565 725 
Q 2881 1009 2881 1497 
Q 2881 1984 2565 2268 
Q 2250 2553 1709 2553 
Q 1456 2553 1204 2497 
Q 953 2441 691 2322 
L 691 4666 
z
" transform="scale(0.015625)"/>
       </defs>
       <use xlink:href="#DejaVuSans-35"/>
      </g>
     </g>
    </g>
    <g id="xtick_5">
     <g id="line2d_9">
      <path d="M 555.485722 335.57796 
L 555.485722 7.895952 
" clip-path="url(#pcdaad02203)" style="fill: none; stroke: #b0b0b0; stroke-opacity: 0.18; stroke-width: 0.8; stroke-linecap: square"/>
     </g>
     <g id="line2d_10">
      <g>
       <use xlink:href="#m27992161ad" x="555.485722" y="335.57796" style="stroke: #000000; stroke-width: 0.8"/>
      </g>
     </g>
     <g id="text_5">
      <!-- 6 -->
      <g transform="translate(552.622597 349.416554) scale(0.09 -0.09)">
       <defs>
        <path id="DejaVuSans-36" d="M 2113 2584 
Q 1688 2584 1439 2293 
Q 1191 2003 1191 1497 
Q 1191 994 1439 701 
Q 1688 409 2113 409 
Q 2538 409 2786 701 
Q 3034 994 3034 1497 
Q 3034 2003 2786 2293 
Q 2538 2584 2113 2584 
z
M 3366 4563 
L 3366 3988 
Q 3128 4100 2886 4159 
Q 2644 4219 2406 4219 
Q 1781 4219 1451 3797 
Q 1122 3375 1075 2522 
Q 1259 2794 1537 2939 
Q 1816 3084 2150 3084 
Q 2853 3084 3261 2657 
Q 3669 2231 3669 1497 
Q 3669 778 3244 343 
Q 2819 -91 2113 -91 
Q 1303 -91 875 529 
Q 447 1150 447 2328 
Q 447 3434 972 4092 
Q 1497 4750 2381 4750 
Q 2619 4750 2861 4703 
Q 3103 4656 3366 4563 
z
" transform="scale(0.015625)"/>
       </defs>
       <use xlink:href="#DejaVuSans-36"/>
      </g>
     </g>
    </g>
    <g id="text_6">
     <!-- Portfolio breadth: average number of active holdings -->
     <g transform="translate(197.326087 362.88671) scale(0.1 -0.1)">
      <defs>
       <path id="DejaVuSans-50" d="M 1259 4147 
L 1259 2394 
L 2053 2394 
Q 2494 2394 2734 2622 
Q 2975 2850 2975 3272 
Q 2975 3691 2734 3919 
Q 2494 4147 2053 4147 
L 1259 4147 
z
M 628 4666 
L 2053 4666 
Q 2838 4666 3239 4311 
Q 3641 3956 3641 3272 
Q 3641 2581 3239 2228 
Q 2838 1875 2053 1875 
L 1259 1875 
L 1259 0 
L 628 0 
L 628 4666 
z
" transform="scale(0.015625)"/>
       <path id="DejaVuSans-6f" d="M 1959 3097 
Q 1497 3097 1228 2736 
Q 959 2375 959 1747 
Q 959 1119 1226 758 
Q 1494 397 1959 397 
Q 2419 397 2687 759 
Q 2956 1122 2956 1747 
Q 2956 2369 2687 2733 
Q 2419 3097 1959 3097 
z
M 1959 3584 
Q 2709 3584 3137 3096 
Q 3566 2609 3566 1747 
Q 3566 888 3137 398 
Q 2709 -91 1959 -91 
Q 1206 -91 779 398 
Q 353 888 353 1747 
Q 353 2609 779 3096 
Q 1206 3584 1959 3584 
z
" transform="scale(0.015625)"/>
       <path id="DejaVuSans-72" d="M 2631 2963 
Q 2534 3019 2420 3045 
Q 2306 3072 2169 3072 
Q 1681 3072 1420 2755 
Q 1159 2438 1159 1844 
L 1159 0 
L 581 0 
L 581 3500 
L 1159 3500 
L 1159 2956 
Q 1341 3275 1631 3429 
Q 1922 3584 2338 3584 
Q 2397 3584 2469 3576 
Q 2541 3569 2628 3553 
L 2631 2963 
z
" transform="scale(0.015625)"/>
       <path id="DejaVuSans-74" d="M 1172 4494 
L 1172 3500 
L 2356 3500 
L 2356 3053 
L 1172 3053 
L 1172 1153 
Q 1172 725 1289 603 
Q 1406 481 1766 481 
L 2356 481 
L 2356 0 
L 1766 0 
Q 1100 0 847 248 
Q 594 497 594 1153 
L 594 3053 
L 172 3053 
L 172 3500 
L 594 3500 
L 594 4494 
L 1172 4494 
z
" transform="scale(0.015625)"/>
       <path id="DejaVuSans-66" d="M 2375 4863 
L 2375 4384 
L 1825 4384 
Q 1516 4384 1395 4259 
Q 1275 4134 1275 3809 
L 1275 3500 
L 2222 3500 
L 2222 3053 
L 1275 3053 
L 1275 0 
L 697 0 
L 697 3053 
L 147 3053 
L 147 3500 
L 697 3500 
L 697 3744 
Q 697 4328 969 4595 
Q 1241 4863 1831 4863 
L 2375 4863 
z
" transform="scale(0.015625)"/>
       <path id="DejaVuSans-6c" d="M 603 4863 
L 1178 4863 
L 1178 0 
L 603 0 
L 603 4863 
z
" transform="scale(0.015625)"/>
       <path id="DejaVuSans-69" d="M 603 3500 
L 1178 3500 
L 1178 0 
L 603 0 
L 603 3500 
z
M 603 4863 
L 1178 4863 
L 1178 4134 
L 603 4134 
L 603 4863 
z
" transform="scale(0.015625)"/>
       <path id="DejaVuSans-20" transform="scale(0.015625)"/>
       <path id="DejaVuSans-62" d="M 3116 1747 
Q 3116 2381 2855 2742 
Q 2594 3103 2138 3103 
Q 1681 3103 1420 2742 
Q 1159 2381 1159 1747 
Q 1159 1113 1420 752 
Q 1681 391 2138 391 
Q 2594 391 2855 752 
Q 3116 1113 3116 1747 
z
M 1159 2969 
Q 1341 3281 1617 3432 
Q 1894 3584 2278 3584 
Q 2916 3584 3314 3078 
Q 3713 2572 3713 1747 
Q 3713 922 3314 415 
Q 2916 -91 2278 -91 
Q 1894 -91 1617 61 
Q 1341 213 1159 525 
L 1159 0 
L 581 0 
L 581 4863 
L 1159 4863 
L 1159 2969 
z
" transform="scale(0.015625)"/>
       <path id="DejaVuSans-65" d="M 3597 1894 
L 3597 1613 
L 953 1613 
Q 991 1019 1311 708 
Q 1631 397 2203 397 
Q 2534 397 2845 478 
Q 3156 559 3463 722 
L 3463 178 
Q 3153 47 2828 -22 
Q 2503 -91 2169 -91 
Q 1331 -91 842 396 
Q 353 884 353 1716 
Q 353 2575 817 3079 
Q 1281 3584 2069 3584 
Q 2775 3584 3186 3129 
Q 3597 2675 3597 1894 
z
M 3022 2063 
Q 3016 2534 2758 2815 
Q 2500 3097 2075 3097 
Q 1594 3097 1305 2825 
Q 1016 2553 972 2059 
L 3022 2063 
z
" transform="scale(0.015625)"/>
       <path id="DejaVuSans-61" d="M 2194 1759 
Q 1497 1759 1228 1600 
Q 959 1441 959 1056 
Q 959 750 1161 570 
Q 1363 391 1709 391 
Q 2188 391 2477 730 
Q 2766 1069 2766 1631 
L 2766 1759 
L 2194 1759 
z
M 3341 1997 
L 3341 0 
L 2766 0 
L 2766 531 
Q 2569 213 2275 61 
Q 1981 -91 1556 -91 
Q 1019 -91 701 211 
Q 384 513 384 1019 
Q 384 1609 779 1909 
Q 1175 2209 1959 2209 
L 2766 2209 
L 2766 2266 
Q 2766 2663 2505 2880 
Q 2244 3097 1772 3097 
Q 1472 3097 1187 3025 
Q 903 2953 641 2809 
L 641 3341 
Q 956 3463 1253 3523 
Q 1550 3584 1831 3584 
Q 2591 3584 2966 3190 
Q 3341 2797 3341 1997 
z
" transform="scale(0.015625)"/>
       <path id="DejaVuSans-64" d="M 2906 2969 
L 2906 4863 
L 3481 4863 
L 3481 0 
L 2906 0 
L 2906 525 
Q 2725 213 2448 61 
Q 2172 -91 1784 -91 
Q 1150 -91 751 415 
Q 353 922 353 1747 
Q 353 2572 751 3078 
Q 1150 3584 1784 3584 
Q 2172 3584 2448 3432 
Q 2725 3281 2906 2969 
z
M 947 1747 
Q 947 1113 1208 752 
Q 1469 391 1925 391 
Q 2381 391 2643 752 
Q 2906 1113 2906 1747 
Q 2906 2381 2643 2742 
Q 2381 3103 1925 3103 
Q 1469 3103 1208 2742 
Q 947 2381 947 1747 
z
" transform="scale(0.015625)"/>
       <path id="DejaVuSans-68" d="M 3513 2113 
L 3513 0 
L 2938 0 
L 2938 2094 
Q 2938 2591 2744 2837 
Q 2550 3084 2163 3084 
Q 1697 3084 1428 2787 
Q 1159 2491 1159 1978 
L 1159 0 
L 581 0 
L 581 4863 
L 1159 4863 
L 1159 2956 
Q 1366 3272 1645 3428 
Q 1925 3584 2291 3584 
Q 2894 3584 3203 3211 
Q 3513 2838 3513 2113 
z
" transform="scale(0.015625)"/>
       <path id="DejaVuSans-3a" d="M 750 794 
L 1409 794 
L 1409 0 
L 750 0 
L 750 794 
z
M 750 3309 
L 1409 3309 
L 1409 2516 
L 750 2516 
L 750 3309 
z
" transform="scale(0.015625)"/>
       <path id="DejaVuSans-76" d="M 191 3500 
L 800 3500 
L 1894 563 
L 2988 3500 
L 3597 3500 
L 2284 0 
L 1503 0 
L 191 3500 
z
" transform="scale(0.015625)"/>
       <path id="DejaVuSans-67" d="M 2906 1791 
Q 2906 2416 2648 2759 
Q 2391 3103 1925 3103 
Q 1463 3103 1205 2759 
Q 947 2416 947 1791 
Q 947 1169 1205 825 
Q 1463 481 1925 481 
Q 2391 481 2648 825 
Q 2906 1169 2906 1791 
z
M 3481 434 
Q 3481 -459 3084 -895 
Q 2688 -1331 1869 -1331 
Q 1566 -1331 1297 -1286 
Q 1028 -1241 775 -1147 
L 775 -588 
Q 1028 -725 1275 -790 
Q 1522 -856 1778 -856 
Q 2344 -856 2625 -561 
Q 2906 -266 2906 331 
L 2906 616 
Q 2728 306 2450 153 
Q 2172 0 1784 0 
Q 1141 0 747 490 
Q 353 981 353 1791 
Q 353 2603 747 3093 
Q 1141 3584 1784 3584 
Q 2172 3584 2450 3431 
Q 2728 3278 2906 2969 
L 2906 3500 
L 3481 3500 
L 3481 434 
z
" transform="scale(0.015625)"/>
       <path id="DejaVuSans-6e" d="M 3513 2113 
L 3513 0 
L 2938 0 
L 2938 2094 
Q 2938 2591 2744 2837 
Q 2550 3084 2163 3084 
Q 1697 3084 1428 2787 
Q 1159 2491 1159 1978 
L 1159 0 
L 581 0 
L 581 3500 
L 1159 3500 
L 1159 2956 
Q 1366 3272 1645 3428 
Q 1925 3584 2291 3584 
Q 2894 3584 3203 3211 
Q 3513 2838 3513 2113 
z
" transform="scale(0.015625)"/>
       <path id="DejaVuSans-75" d="M 544 1381 
L 544 3500 
L 1119 3500 
L 1119 1403 
Q 1119 906 1312 657 
Q 1506 409 1894 409 
Q 2359 409 2629 706 
Q 2900 1003 2900 1516 
L 2900 3500 
L 3475 3500 
L 3475 0 
L 2900 0 
L 2900 538 
Q 2691 219 2414 64 
Q 2138 -91 1772 -91 
Q 1169 -91 856 284 
Q 544 659 544 1381 
z
M 1991 3584 
L 1991 3584 
z
" transform="scale(0.015625)"/>
       <path id="DejaVuSans-6d" d="M 3328 2828 
Q 3544 3216 3844 3400 
Q 4144 3584 4550 3584 
Q 5097 3584 5394 3201 
Q 5691 2819 5691 2113 
L 5691 0 
L 5113 0 
L 5113 2094 
Q 5113 2597 4934 2840 
Q 4756 3084 4391 3084 
Q 3944 3084 3684 2787 
Q 3425 2491 3425 1978 
L 3425 0 
L 2847 0 
L 2847 2094 
Q 2847 2600 2669 2842 
Q 2491 3084 2119 3084 
Q 1678 3084 1418 2786 
Q 1159 2488 1159 1978 
L 1159 0 
L 581 0 
L 581 3500 
L 1159 3500 
L 1159 2956 
Q 1356 3278 1631 3431 
Q 1906 3584 2284 3584 
Q 2666 3584 2933 3390 
Q 3200 3197 3328 2828 
z
" transform="scale(0.015625)"/>
       <path id="DejaVuSans-63" d="M 3122 3366 
L 3122 2828 
Q 2878 2963 2633 3030 
Q 2388 3097 2138 3097 
Q 1578 3097 1268 2742 
Q 959 2388 959 1747 
Q 959 1106 1268 751 
Q 1578 397 2138 397 
Q 2388 397 2633 464 
Q 2878 531 3122 666 
L 3122 134 
Q 2881 22 2623 -34 
Q 2366 -91 2075 -91 
Q 1284 -91 818 406 
Q 353 903 353 1747 
Q 353 2603 823 3093 
Q 1294 3584 2113 3584 
Q 2378 3584 2631 3529 
Q 2884 3475 3122 3366 
z
" transform="scale(0.015625)"/>
       <path id="DejaVuSans-73" d="M 2834 3397 
L 2834 2853 
Q 2591 2978 2328 3040 
Q 2066 3103 1784 3103 
Q 1356 3103 1142 2972 
Q 928 2841 928 2578 
Q 928 2378 1081 2264 
Q 1234 2150 1697 2047 
L 1894 2003 
Q 2506 1872 2764 1633 
Q 3022 1394 3022 966 
Q 3022 478 2636 193 
Q 2250 -91 1575 -91 
Q 1294 -91 989 -36 
Q 684 19 347 128 
L 347 722 
Q 666 556 975 473 
Q 1284 391 1588 391 
Q 1994 391 2212 530 
Q 2431 669 2431 922 
Q 2431 1156 2273 1281 
Q 2116 1406 1581 1522 
L 1381 1569 
Q 847 1681 609 1914 
Q 372 2147 372 2553 
Q 372 3047 722 3315 
Q 1072 3584 1716 3584 
Q 2034 3584 2315 3537 
Q 2597 3491 2834 3397 
z
" transform="scale(0.015625)"/>
      </defs>
      <use xlink:href="#DejaVuSans-50"/>
      <use xlink:href="#DejaVuSans-6f" transform="translate(56.677734 0)"/>
      <use xlink:href="#DejaVuSans-72" transform="translate(117.859375 0)"/>
      <use xlink:href="#DejaVuSans-74" transform="translate(158.972656 0)"/>
      <use xlink:href="#DejaVuSans-66" transform="translate(198.181641 0)"/>
      <use xlink:href="#DejaVuSans-6f" transform="translate(233.386719 0)"/>
      <use xlink:href="#DejaVuSans-6c" transform="translate(294.568359 0)"/>
      <use xlink:href="#DejaVuSans-69" transform="translate(322.351562 0)"/>
      <use xlink:href="#DejaVuSans-6f" transform="translate(350.134766 0)"/>
      <use xlink:href="#DejaVuSans-20" transform="translate(411.316406 0)"/>
      <use xlink:href="#DejaVuSans-62" transform="translate(443.103516 0)"/>
      <use xlink:href="#DejaVuSans-72" transform="translate(506.580078 0)"/>
      <use xlink:href="#DejaVuSans-65" transform="translate(545.443359 0)"/>
      <use xlink:href="#DejaVuSans-61" transform="translate(606.966797 0)"/>
      <use xlink:href="#DejaVuSans-64" transform="translate(668.246094 0)"/>
      <use xlink:href="#DejaVuSans-74" transform="translate(731.722656 0)"/>
      <use xlink:href="#DejaVuSans-68" transform="translate(770.931641 0)"/>
      <use xlink:href="#DejaVuSans-3a" transform="translate(834.310547 0)"/>
      <use xlink:href="#DejaVuSans-20" transform="translate(868.001953 0)"/>
      <use xlink:href="#DejaVuSans-61" transform="translate(899.789062 0)"/>
      <use xlink:href="#DejaVuSans-76" transform="translate(961.068359 0)"/>
      <use xlink:href="#DejaVuSans-65" transform="translate(1020.248047 0)"/>
      <use xlink:href="#DejaVuSans-72" transform="translate(1081.771484 0)"/>
      <use xlink:href="#DejaVuSans-61" transform="translate(1122.884766 0)"/>
      <use xlink:href="#DejaVuSans-67" transform="translate(1184.164062 0)"/>
      <use xlink:href="#DejaVuSans-65" transform="translate(1247.640625 0)"/>
      <use xlink:href="#DejaVuSans-20" transform="translate(1309.164062 0)"/>
      <use xlink:href="#DejaVuSans-6e" transform="translate(1340.951172 0)"/>
      <use xlink:href="#DejaVuSans-75" transform="translate(1404.330078 0)"/>
      <use xlink:href="#DejaVuSans-6d" transform="translate(1467.708984 0)"/>
      <use xlink:href="#DejaVuSans-62" transform="translate(1565.121094 0)"/>
      <use xlink:href="#DejaVuSans-65" transform="translate(1628.597656 0)"/>
      <use xlink:href="#DejaVuSans-72" transform="translate(1690.121094 0)"/>
      <use xlink:href="#DejaVuSans-20" transform="translate(1731.234375 0)"/>
      <use xlink:href="#DejaVuSans-6f" transform="translate(1763.021484 0)"/>
      <use xlink:href="#DejaVuSans-66" transform="translate(1824.203125 0)"/>
      <use xlink:href="#DejaVuSans-20" transform="translate(1859.408203 0)"/>
      <use xlink:href="#DejaVuSans-61" transform="translate(1891.195312 0)"/>
      <use xlink:href="#DejaVuSans-63" transform="translate(1952.474609 0)"/>
      <use xlink:href="#DejaVuSans-74" transform="translate(2007.455078 0)"/>
      <use xlink:href="#DejaVuSans-69" transform="translate(2046.664062 0)"/>
      <use xlink:href="#DejaVuSans-76" transform="translate(2074.447266 0)"/>
      <use xlink:href="#DejaVuSans-65" transform="translate(2133.626953 0)"/>
      <use xlink:href="#DejaVuSans-20" transform="translate(2195.150391 0)"/>
      <use xlink:href="#DejaVuSans-68" transform="translate(2226.9375 0)"/>
      <use xlink:href="#DejaVuSans-6f" transform="translate(2290.316406 0)"/>
      <use xlink:href="#DejaVuSans-6c" transform="translate(2351.498047 0)"/>
      <use xlink:href="#DejaVuSans-64" transform="translate(2379.28125 0)"/>
      <use xlink:href="#DejaVuSans-69" transform="translate(2442.757812 0)"/>
      <use xlink:href="#DejaVuSans-6e" transform="translate(2470.541016 0)"/>
      <use xlink:href="#DejaVuSans-67" transform="translate(2533.919922 0)"/>
      <use xlink:href="#DejaVuSans-73" transform="translate(2597.396484 0)"/>
     </g>
    </g>
   </g>
   <g id="matplotlib.axis_2">
    <g id="ytick_1">
     <g id="line2d_11">
      <path d="M 77.250888 328.454438 
L 582.352848 328.454438 
" clip-path="url(#pcdaad02203)" style="fill: none; stroke: #b0b0b0; stroke-opacity: 0.18; stroke-width: 0.8; stroke-linecap: square"/>
     </g>
     <g id="line2d_12">
      <defs>
       <path id="m8ad94403bc" d="M 0 0 
L -3.5 0 
" style="stroke: #000000; stroke-width: 0.8"/>
      </defs>
      <g>
       <use xlink:href="#m8ad94403bc" x="77.250888" y="328.454438" style="stroke: #000000; stroke-width: 0.8"/>
      </g>
     </g>
     <g id="text_7">
      <!-- 0 -->
      <g transform="translate(64.524638 331.873735) scale(0.09 -0.09)">
       <defs>
        <path id="DejaVuSans-30" d="M 2034 4250 
Q 1547 4250 1301 3770 
Q 1056 3291 1056 2328 
Q 1056 1369 1301 889 
Q 1547 409 2034 409 
Q 2525 409 2770 889 
Q 3016 1369 3016 2328 
Q 3016 3291 2770 3770 
Q 2525 4250 2034 4250 
z
M 2034 4750 
Q 2819 4750 3233 4129 
Q 3647 3509 3647 2328 
Q 3647 1150 3233 529 
Q 2819 -91 2034 -91 
Q 1250 -91 836 529 
Q 422 1150 422 2328 
Q 422 3509 836 4129 
Q 1250 4750 2034 4750 
z
" transform="scale(0.015625)"/>
       </defs>
       <use xlink:href="#DejaVuSans-30"/>
      </g>
     </g>
    </g>
    <g id="ytick_2">
     <g id="line2d_13">
      <path d="M 77.250888 257.219219 
L 582.352848 257.219219 
" clip-path="url(#pcdaad02203)" style="fill: none; stroke: #b0b0b0; stroke-opacity: 0.18; stroke-width: 0.8; stroke-linecap: square"/>
     </g>
     <g id="line2d_14">
      <g>
       <use xlink:href="#m8ad94403bc" x="77.250888" y="257.219219" style="stroke: #000000; stroke-width: 0.8"/>
      </g>
     </g>
     <g id="text_8">
      <!-- 20 -->
      <g transform="translate(58.798388 260.638516) scale(0.09 -0.09)">
       <use xlink:href="#DejaVuSans-32"/>
       <use xlink:href="#DejaVuSans-30" transform="translate(63.623047 0)"/>
      </g>
     </g>
    </g>
    <g id="ytick_3">
     <g id="line2d_15">
      <path d="M 77.250888 185.984 
L 582.352848 185.984 
" clip-path="url(#pcdaad02203)" style="fill: none; stroke: #b0b0b0; stroke-opacity: 0.18; stroke-width: 0.8; stroke-linecap: square"/>
     </g>
     <g id="line2d_16">
      <g>
       <use xlink:href="#m8ad94403bc" x="77.250888" y="185.984" style="stroke: #000000; stroke-width: 0.8"/>
      </g>
     </g>
     <g id="text_9">
      <!-- 40 -->
      <g transform="translate(58.798388 189.403297) scale(0.09 -0.09)">
       <use xlink:href="#DejaVuSans-34"/>
       <use xlink:href="#DejaVuSans-30" transform="translate(63.623047 0)"/>
      </g>
     </g>
    </g>
    <g id="ytick_4">
     <g id="line2d_17">
      <path d="M 77.250888 114.748781 
L 582.352848 114.748781 
" clip-path="url(#pcdaad02203)" style="fill: none; stroke: #b0b0b0; stroke-opacity: 0.18; stroke-width: 0.8; stroke-linecap: square"/>
     </g>
     <g id="line2d_18">
      <g>
       <use xlink:href="#m8ad94403bc" x="77.250888" y="114.748781" style="stroke: #000000; stroke-width: 0.8"/>
      </g>
     </g>
     <g id="text_10">
      <!-- 60 -->
      <g transform="translate(58.798388 118.168078) scale(0.09 -0.09)">
       <use xlink:href="#DejaVuSans-36"/>
       <use xlink:href="#DejaVuSans-30" transform="translate(63.623047 0)"/>
      </g>
     </g>
    </g>
    <g id="ytick_5">
     <g id="line2d_19">
      <path d="M 77.250888 43.513562 
L 582.352848 43.513562 
" clip-path="url(#pcdaad02203)" style="fill: none; stroke: #b0b0b0; stroke-opacity: 0.18; stroke-width: 0.8; stroke-linecap: square"/>
     </g>
     <g id="line2d_20">
      <g>
       <use xlink:href="#m8ad94403bc" x="77.250888" y="43.513562" style="stroke: #000000; stroke-width: 0.8"/>
      </g>
     </g>
     <g id="text_11">
      <!-- 80 -->
      <g transform="translate(58.798388 46.932858) scale(0.09 -0.09)">
       <defs>
        <path id="DejaVuSans-38" d="M 2034 2216 
Q 1584 2216 1326 1975 
Q 1069 1734 1069 1313 
Q 1069 891 1326 650 
Q 1584 409 2034 409 
Q 2484 409 2743 651 
Q 3003 894 3003 1313 
Q 3003 1734 2745 1975 
Q 2488 2216 2034 2216 
z
M 1403 2484 
Q 997 2584 770 2862 
Q 544 3141 544 3541 
Q 544 4100 942 4425 
Q 1341 4750 2034 4750 
Q 2731 4750 3128 4425 
Q 3525 4100 3525 3541 
Q 3525 3141 3298 2862 
Q 3072 2584 2669 2484 
Q 3125 2378 3379 2068 
Q 3634 1759 3634 1313 
Q 3634 634 3220 271 
Q 2806 -91 2034 -91 
Q 1263 -91 848 271 
Q 434 634 434 1313 
Q 434 1759 690 2068 
Q 947 2378 1403 2484 
z
M 1172 3481 
Q 1172 3119 1398 2916 
Q 1625 2713 2034 2713 
Q 2441 2713 2670 2916 
Q 2900 3119 2900 3481 
Q 2900 3844 2670 4047 
Q 2441 4250 2034 4250 
Q 1625 4250 1398 4047 
Q 1172 3844 1172 3481 
z
" transform="scale(0.015625)"/>
       </defs>
       <use xlink:href="#DejaVuSans-38"/>
       <use xlink:href="#DejaVuSans-30" transform="translate(63.623047 0)"/>
      </g>
     </g>
    </g>
    <g id="text_12">
     <!-- Target-change frequency: months with a target-weight change (%) -->
     <g transform="translate(52.7187 338.35805) rotate(-90) scale(0.1 -0.1)">
      <defs>
       <path id="DejaVuSans-54" d="M -19 4666 
L 3928 4666 
L 3928 4134 
L 2272 4134 
L 2272 0 
L 1638 0 
L 1638 4134 
L -19 4134 
L -19 4666 
z
" transform="scale(0.015625)"/>
       <path id="DejaVuSans-2d" d="M 313 2009 
L 1997 2009 
L 1997 1497 
L 313 1497 
L 313 2009 
z
" transform="scale(0.015625)"/>
       <path id="DejaVuSans-71" d="M 947 1747 
Q 947 1113 1208 752 
Q 1469 391 1925 391 
Q 2381 391 2643 752 
Q 2906 1113 2906 1747 
Q 2906 2381 2643 2742 
Q 2381 3103 1925 3103 
Q 1469 3103 1208 2742 
Q 947 2381 947 1747 
z
M 2906 525 
Q 2725 213 2448 61 
Q 2172 -91 1784 -91 
Q 1150 -91 751 415 
Q 353 922 353 1747 
Q 353 2572 751 3078 
Q 1150 3584 1784 3584 
Q 2172 3584 2448 3432 
Q 2725 3281 2906 2969 
L 2906 3500 
L 3481 3500 
L 3481 -1331 
L 2906 -1331 
L 2906 525 
z
" transform="scale(0.015625)"/>
       <path id="DejaVuSans-79" d="M 2059 -325 
Q 1816 -950 1584 -1140 
Q 1353 -1331 966 -1331 
L 506 -1331 
L 506 -850 
L 844 -850 
Q 1081 -850 1212 -737 
Q 1344 -625 1503 -206 
L 1606 56 
L 191 3500 
L 800 3500 
L 1894 763 
L 2988 3500 
L 3597 3500 
L 2059 -325 
z
" transform="scale(0.015625)"/>
       <path id="DejaVuSans-77" d="M 269 3500 
L 844 3500 
L 1563 769 
L 2278 3500 
L 2956 3500 
L 3675 769 
L 4391 3500 
L 4966 3500 
L 4050 0 
L 3372 0 
L 2619 2869 
L 1863 0 
L 1184 0 
L 269 3500 
z
" transform="scale(0.015625)"/>
       <path id="DejaVuSans-28" d="M 1984 4856 
Q 1566 4138 1362 3434 
Q 1159 2731 1159 2009 
Q 1159 1288 1364 580 
Q 1569 -128 1984 -844 
L 1484 -844 
Q 1016 -109 783 600 
Q 550 1309 550 2009 
Q 550 2706 781 3412 
Q 1013 4119 1484 4856 
L 1984 4856 
z
" transform="scale(0.015625)"/>
       <path id="DejaVuSans-25" d="M 4653 2053 
Q 4381 2053 4226 1822 
Q 4072 1591 4072 1178 
Q 4072 772 4226 539 
Q 4381 306 4653 306 
Q 4919 306 5073 539 
Q 5228 772 5228 1178 
Q 5228 1588 5073 1820 
Q 4919 2053 4653 2053 
z
M 4653 2450 
Q 5147 2450 5437 2106 
Q 5728 1763 5728 1178 
Q 5728 594 5436 251 
Q 5144 -91 4653 -91 
Q 4153 -91 3862 251 
Q 3572 594 3572 1178 
Q 3572 1766 3864 2108 
Q 4156 2450 4653 2450 
z
M 1428 4353 
Q 1159 4353 1004 4120 
Q 850 3888 850 3481 
Q 850 3069 1003 2837 
Q 1156 2606 1428 2606 
Q 1700 2606 1854 2837 
Q 2009 3069 2009 3481 
Q 2009 3884 1853 4118 
Q 1697 4353 1428 4353 
z
M 4250 4750 
L 4750 4750 
L 1831 -91 
L 1331 -91 
L 4250 4750 
z
M 1428 4750 
Q 1922 4750 2215 4408 
Q 2509 4066 2509 3481 
Q 2509 2891 2217 2550 
Q 1925 2209 1428 2209 
Q 931 2209 642 2551 
Q 353 2894 353 3481 
Q 353 4063 643 4406 
Q 934 4750 1428 4750 
z
" transform="scale(0.015625)"/>
       <path id="DejaVuSans-29" d="M 513 4856 
L 1013 4856 
Q 1481 4119 1714 3412 
Q 1947 2706 1947 2009 
Q 1947 1309 1714 600 
Q 1481 -109 1013 -844 
L 513 -844 
Q 928 -128 1133 580 
Q 1338 1288 1338 2009 
Q 1338 2731 1133 3434 
Q 928 4138 513 4856 
z
" transform="scale(0.015625)"/>
      </defs>
      <use xlink:href="#DejaVuSans-54"/>
      <use xlink:href="#DejaVuSans-61" transform="translate(44.583984 0)"/>
      <use xlink:href="#DejaVuSans-72" transform="translate(105.863281 0)"/>
      <use xlink:href="#DejaVuSans-67" transform="translate(145.226562 0)"/>
      <use xlink:href="#DejaVuSans-65" transform="translate(208.703125 0)"/>
      <use xlink:href="#DejaVuSans-74" transform="translate(270.226562 0)"/>
      <use xlink:href="#DejaVuSans-2d" transform="translate(309.435547 0)"/>
      <use xlink:href="#DejaVuSans-63" transform="translate(345.519531 0)"/>
      <use xlink:href="#DejaVuSans-68" transform="translate(400.5 0)"/>
      <use xlink:href="#DejaVuSans-61" transform="translate(463.878906 0)"/>
      <use xlink:href="#DejaVuSans-6e" transform="translate(525.158203 0)"/>
      <use xlink:href="#DejaVuSans-67" transform="translate(588.537109 0)"/>
      <use xlink:href="#DejaVuSans-65" transform="translate(652.013672 0)"/>
      <use xlink:href="#DejaVuSans-20" transform="translate(713.537109 0)"/>
      <use xlink:href="#DejaVuSans-66" transform="translate(745.324219 0)"/>
      <use xlink:href="#DejaVuSans-72" transform="translate(780.529297 0)"/>
      <use xlink:href="#DejaVuSans-65" transform="translate(819.392578 0)"/>
      <use xlink:href="#DejaVuSans-71" transform="translate(880.916016 0)"/>
      <use xlink:href="#DejaVuSans-75" transform="translate(944.392578 0)"/>
      <use xlink:href="#DejaVuSans-65" transform="translate(1007.771484 0)"/>
      <use xlink:href="#DejaVuSans-6e" transform="translate(1069.294922 0)"/>
      <use xlink:href="#DejaVuSans-63" transform="translate(1132.673828 0)"/>
      <use xlink:href="#DejaVuSans-79" transform="translate(1187.654297 0)"/>
      <use xlink:href="#DejaVuSans-3a" transform="translate(1239.583984 0)"/>
      <use xlink:href="#DejaVuSans-20" transform="translate(1273.275391 0)"/>
      <use xlink:href="#DejaVuSans-6d" transform="translate(1305.0625 0)"/>
      <use xlink:href="#DejaVuSans-6f" transform="translate(1402.474609 0)"/>
      <use xlink:href="#DejaVuSans-6e" transform="translate(1463.65625 0)"/>
      <use xlink:href="#DejaVuSans-74" transform="translate(1527.035156 0)"/>
      <use xlink:href="#DejaVuSans-68" transform="translate(1566.244141 0)"/>
      <use xlink:href="#DejaVuSans-73" transform="translate(1629.623047 0)"/>
      <use xlink:href="#DejaVuSans-20" transform="translate(1681.722656 0)"/>
      <use xlink:href="#DejaVuSans-77" transform="translate(1713.509766 0)"/>
      <use xlink:href="#DejaVuSans-69" transform="translate(1795.296875 0)"/>
      <use xlink:href="#DejaVuSans-74" transform="translate(1823.080078 0)"/>
      <use xlink:href="#DejaVuSans-68" transform="translate(1862.289062 0)"/>
      <use xlink:href="#DejaVuSans-20" transform="translate(1925.667969 0)"/>
      <use xlink:href="#DejaVuSans-61" transform="translate(1957.455078 0)"/>
      <use xlink:href="#DejaVuSans-20" transform="translate(2018.734375 0)"/>
      <use xlink:href="#DejaVuSans-74" transform="translate(2050.521484 0)"/>
      <use xlink:href="#DejaVuSans-61" transform="translate(2089.730469 0)"/>
      <use xlink:href="#DejaVuSans-72" transform="translate(2151.009766 0)"/>
      <use xlink:href="#DejaVuSans-67" transform="translate(2190.373047 0)"/>
      <use xlink:href="#DejaVuSans-65" transform="translate(2253.849609 0)"/>
      <use xlink:href="#DejaVuSans-74" transform="translate(2315.373047 0)"/>
      <use xlink:href="#DejaVuSans-2d" transform="translate(2354.582031 0)"/>
      <use xlink:href="#DejaVuSans-77" transform="translate(2390.666016 0)"/>
      <use xlink:href="#DejaVuSans-65" transform="translate(2472.453125 0)"/>
      <use xlink:href="#DejaVuSans-69" transform="translate(2533.976562 0)"/>
      <use xlink:href="#DejaVuSans-67" transform="translate(2561.759766 0)"/>
      <use xlink:href="#DejaVuSans-68" transform="translate(2625.236328 0)"/>
      <use xlink:href="#DejaVuSans-74" transform="translate(2688.615234 0)"/>
      <use xlink:href="#DejaVuSans-20" transform="translate(2727.824219 0)"/>
      <use xlink:href="#DejaVuSans-63" transform="translate(2759.611328 0)"/>
      <use xlink:href="#DejaVuSans-68" transform="translate(2814.591797 0)"/>
      <use xlink:href="#DejaVuSans-61" transform="translate(2877.970703 0)"/>
      <use xlink:href="#DejaVuSans-6e" transform="translate(2939.25 0)"/>
      <use xlink:href="#DejaVuSans-67" transform="translate(3002.628906 0)"/>
      <use xlink:href="#DejaVuSans-65" transform="translate(3066.105469 0)"/>
      <use xlink:href="#DejaVuSans-20" transform="translate(3127.628906 0)"/>
      <use xlink:href="#DejaVuSans-28" transform="translate(3159.416016 0)"/>
      <use xlink:href="#DejaVuSans-25" transform="translate(3198.429688 0)"/>
      <use xlink:href="#DejaVuSans-29" transform="translate(3293.449219 0)"/>
     </g>
    </g>
   </g>
   <g id="patch_3">
    <path d="M 77.250888 335.57796 
L 77.250888 7.895952 
" style="fill: none; stroke: #000000; stroke-width: 0.8; stroke-linejoin: miter; stroke-linecap: square"/>
   </g>
   <g id="patch_4">
    <path d="M 582.352848 335.57796 
L 582.352848 7.895952 
" style="fill: none; stroke: #000000; stroke-width: 0.8; stroke-linejoin: miter; stroke-linecap: square"/>
   </g>
   <g id="patch_5">
    <path d="M 77.250888 335.57796 
L 582.352848 335.57796 
" style="fill: none; stroke: #000000; stroke-width: 0.8; stroke-linejoin: miter; stroke-linecap: square"/>
   </g>
   <g id="patch_6">
    <path d="M 77.250888 7.895952 
L 582.352848 7.895952 
" style="fill: none; stroke: #000000; stroke-width: 0.8; stroke-linejoin: miter; stroke-linecap: square"/>
   </g>
   <g id="text_13">
    <!-- HAA -->
    <g transform="translate(421.98791 111.435689) scale(0.09 -0.09)">
     <defs>
      <path id="DejaVuSans-Bold-48" d="M 588 4666 
L 1791 4666 
L 1791 2888 
L 3566 2888 
L 3566 4666 
L 4769 4666 
L 4769 0 
L 3566 0 
L 3566 1978 
L 1791 1978 
L 1791 0 
L 588 0 
L 588 4666 
z
" transform="scale(0.015625)"/>
      <path id="DejaVuSans-Bold-41" d="M 3419 850 
L 1538 850 
L 1241 0 
L 31 0 
L 1759 4666 
L 3194 4666 
L 4922 0 
L 3713 0 
L 3419 850 
z
M 1838 1716 
L 3116 1716 
L 2478 3572 
L 1838 1716 
z
" transform="scale(0.015625)"/>
     </defs>
     <use xlink:href="#DejaVuSans-Bold-48"/>
     <use xlink:href="#DejaVuSans-Bold-41" transform="translate(83.691406 0)"/>
     <use xlink:href="#DejaVuSans-Bold-41" transform="translate(161.083984 0)"/>
    </g>
   </g>
   <g id="text_14">
    <!-- BAA -->
    <g transform="translate(117.329496 117.077054) scale(0.09 -0.09)">
     <defs>
      <path id="DejaVuSans-Bold-42" d="M 2456 2859 
Q 2741 2859 2887 2984 
Q 3034 3109 3034 3353 
Q 3034 3594 2887 3720 
Q 2741 3847 2456 3847 
L 1791 3847 
L 1791 2859 
L 2456 2859 
z
M 2497 819 
Q 2859 819 3042 972 
Q 3225 1125 3225 1434 
Q 3225 1738 3044 1889 
Q 2863 2041 2497 2041 
L 1791 2041 
L 1791 819 
L 2497 819 
z
M 3616 2497 
Q 4003 2384 4215 2081 
Q 4428 1778 4428 1338 
Q 4428 663 3972 331 
Q 3516 0 2584 0 
L 588 0 
L 588 4666 
L 2394 4666 
Q 3366 4666 3802 4372 
Q 4238 4078 4238 3431 
Q 4238 3091 4078 2852 
Q 3919 2613 3616 2497 
z
" transform="scale(0.015625)"/>
     </defs>
     <use xlink:href="#DejaVuSans-Bold-42"/>
     <use xlink:href="#DejaVuSans-Bold-41" transform="translate(76.220703 0)"/>
     <use xlink:href="#DejaVuSans-Bold-41" transform="translate(153.613281 0)"/>
    </g>
   </g>
   <g id="text_15">
    <!-- ADM -->
    <g transform="translate(512.69527 19.084735) scale(0.09 -0.09)">
     <defs>
      <path id="DejaVuSans-Bold-44" d="M 1791 3756 
L 1791 909 
L 2222 909 
Q 2959 909 3348 1275 
Q 3738 1641 3738 2338 
Q 3738 3031 3350 3393 
Q 2963 3756 2222 3756 
L 1791 3756 
z
M 588 4666 
L 1856 4666 
Q 2919 4666 3439 4514 
Q 3959 4363 4331 4000 
Q 4659 3684 4818 3271 
Q 4978 2859 4978 2338 
Q 4978 1809 4818 1395 
Q 4659 981 4331 666 
Q 3956 303 3431 151 
Q 2906 0 1856 0 
L 588 0 
L 588 4666 
z
" transform="scale(0.015625)"/>
      <path id="DejaVuSans-Bold-4d" d="M 588 4666 
L 2119 4666 
L 3181 2169 
L 4250 4666 
L 5778 4666 
L 5778 0 
L 4641 0 
L 4641 3413 
L 3566 897 
L 2803 897 
L 1728 3413 
L 1728 0 
L 588 0 
L 588 4666 
z
" transform="scale(0.015625)"/>
     </defs>
     <use xlink:href="#DejaVuSans-Bold-41"/>
     <use xlink:href="#DejaVuSans-Bold-44" transform="translate(77.392578 0)"/>
     <use xlink:href="#DejaVuSans-Bold-4d" transform="translate(160.400391 0)"/>
    </g>
   </g>
   <g id="text_16">
    <!-- FAA -->
    <g transform="translate(515.160144 46.367464) scale(0.09 -0.09)">
     <defs>
      <path id="DejaVuSans-Bold-46" d="M 588 4666 
L 3834 4666 
L 3834 3756 
L 1791 3756 
L 1791 2888 
L 3713 2888 
L 3713 1978 
L 1791 1978 
L 1791 0 
L 588 0 
L 588 4666 
z
" transform="scale(0.015625)"/>
     </defs>
     <use xlink:href="#DejaVuSans-Bold-46"/>
     <use xlink:href="#DejaVuSans-Bold-41" transform="translate(56.810547 0)"/>
     <use xlink:href="#DejaVuSans-Bold-41" transform="translate(134.203125 0)"/>
    </g>
   </g>
   <g id="text_17">
    <!-- LAA -->
    <g transform="translate(562.485722 312.964887) scale(0.09 -0.09)">
     <defs>
      <path id="DejaVuSans-Bold-4c" d="M 588 4666 
L 1791 4666 
L 1791 909 
L 3903 909 
L 3903 0 
L 588 0 
L 588 4666 
z
" transform="scale(0.015625)"/>
     </defs>
     <use xlink:href="#DejaVuSans-Bold-4c"/>
     <use xlink:href="#DejaVuSans-Bold-41" transform="translate(63.720703 0)"/>
     <use xlink:href="#DejaVuSans-Bold-41" transform="translate(141.113281 0)"/>
    </g>
   </g>
   <g id="text_18">
    <!-- Marker area: average rule-defined defensive allocation. -->
    <g transform="translate(87.352927 329.02432) scale(0.085 -0.085)">
     <defs>
      <path id="DejaVuSans-4d" d="M 628 4666 
L 1569 4666 
L 2759 1491 
L 3956 4666 
L 4897 4666 
L 4897 0 
L 4281 0 
L 4281 4097 
L 3078 897 
L 2444 897 
L 1241 4097 
L 1241 0 
L 628 0 
L 628 4666 
z
" transform="scale(0.015625)"/>
      <path id="DejaVuSans-6b" d="M 581 4863 
L 1159 4863 
L 1159 1991 
L 2875 3500 
L 3609 3500 
L 1753 1863 
L 3688 0 
L 2938 0 
L 1159 1709 
L 1159 0 
L 581 0 
L 581 4863 
z
" transform="scale(0.015625)"/>
      <path id="DejaVuSans-2e" d="M 684 794 
L 1344 794 
L 1344 0 
L 684 0 
L 684 794 
z
" transform="scale(0.015625)"/>
     </defs>
     <use xlink:href="#DejaVuSans-4d"/>
     <use xlink:href="#DejaVuSans-61" transform="translate(86.279297 0)"/>
     <use xlink:href="#DejaVuSans-72" transform="translate(147.558594 0)"/>
     <use xlink:href="#DejaVuSans-6b" transform="translate(188.671875 0)"/>
     <use xlink:href="#DejaVuSans-65" transform="translate(242.957031 0)"/>
     <use xlink:href="#DejaVuSans-72" transform="translate(304.480469 0)"/>
     <use xlink:href="#DejaVuSans-20" transform="translate(345.59375 0)"/>
     <use xlink:href="#DejaVuSans-61" transform="translate(377.380859 0)"/>
     <use xlink:href="#DejaVuSans-72" transform="translate(438.660156 0)"/>
     <use xlink:href="#DejaVuSans-65" transform="translate(477.523438 0)"/>
     <use xlink:href="#DejaVuSans-61" transform="translate(539.046875 0)"/>
     <use xlink:href="#DejaVuSans-3a" transform="translate(600.326172 0)"/>
     <use xlink:href="#DejaVuSans-20" transform="translate(634.017578 0)"/>
     <use xlink:href="#DejaVuSans-61" transform="translate(665.804688 0)"/>
     <use xlink:href="#DejaVuSans-76" transform="translate(727.083984 0)"/>
     <use xlink:href="#DejaVuSans-65" transform="translate(786.263672 0)"/>
     <use xlink:href="#DejaVuSans-72" transform="translate(847.787109 0)"/>
     <use xlink:href="#DejaVuSans-61" transform="translate(888.900391 0)"/>
     <use xlink:href="#DejaVuSans-67" transform="translate(950.179688 0)"/>
     <use xlink:href="#DejaVuSans-65" transform="translate(1013.65625 0)"/>
     <use xlink:href="#DejaVuSans-20" transform="translate(1075.179688 0)"/>
     <use xlink:href="#DejaVuSans-72" transform="translate(1106.966797 0)"/>
     <use xlink:href="#DejaVuSans-75" transform="translate(1148.080078 0)"/>
     <use xlink:href="#DejaVuSans-6c" transform="translate(1211.458984 0)"/>
     <use xlink:href="#DejaVuSans-65" transform="translate(1239.242188 0)"/>
     <use xlink:href="#DejaVuSans-2d" transform="translate(1300.765625 0)"/>
     <use xlink:href="#DejaVuSans-64" transform="translate(1336.849609 0)"/>
     <use xlink:href="#DejaVuSans-65" transform="translate(1400.326172 0)"/>
     <use xlink:href="#DejaVuSans-66" transform="translate(1461.849609 0)"/>
     <use xlink:href="#DejaVuSans-69" transform="translate(1497.054688 0)"/>
     <use xlink:href="#DejaVuSans-6e" transform="translate(1524.837891 0)"/>
     <use xlink:href="#DejaVuSans-65" transform="translate(1588.216797 0)"/>
     <use xlink:href="#DejaVuSans-64" transform="translate(1649.740234 0)"/>
     <use xlink:href="#DejaVuSans-20" transform="translate(1713.216797 0)"/>
     <use xlink:href="#DejaVuSans-64" transform="translate(1745.003906 0)"/>
     <use xlink:href="#DejaVuSans-65" transform="translate(1808.480469 0)"/>
     <use xlink:href="#DejaVuSans-66" transform="translate(1870.003906 0)"/>
     <use xlink:href="#DejaVuSans-65" transform="translate(1905.208984 0)"/>
     <use xlink:href="#DejaVuSans-6e" transform="translate(1966.732422 0)"/>
     <use xlink:href="#DejaVuSans-73" transform="translate(2030.111328 0)"/>
     <use xlink:href="#DejaVuSans-69" transform="translate(2082.210938 0)"/>
     <use xlink:href="#DejaVuSans-76" transform="translate(2109.994141 0)"/>
     <use xlink:href="#DejaVuSans-65" transform="translate(2169.173828 0)"/>
     <use xlink:href="#DejaVuSans-20" transform="translate(2230.697266 0)"/>
     <use xlink:href="#DejaVuSans-61" transform="translate(2262.484375 0)"/>
     <use xlink:href="#DejaVuSans-6c" transform="translate(2323.763672 0)"/>
     <use xlink:href="#DejaVuSans-6c" transform="translate(2351.546875 0)"/>
     <use xlink:href="#DejaVuSans-6f" transform="translate(2379.330078 0)"/>
     <use xlink:href="#DejaVuSans-63" transform="translate(2440.511719 0)"/>
     <use xlink:href="#DejaVuSans-61" transform="translate(2495.492188 0)"/>
     <use xlink:href="#DejaVuSans-74" transform="translate(2556.771484 0)"/>
     <use xlink:href="#DejaVuSans-69" transform="translate(2595.980469 0)"/>
     <use xlink:href="#DejaVuSans-6f" transform="translate(2623.763672 0)"/>
     <use xlink:href="#DejaVuSans-6e" transform="translate(2684.945312 0)"/>
     <use xlink:href="#DejaVuSans-2e" transform="translate(2748.324219 0)"/>
    </g>
   </g>
  </g>
 </g>
 <defs>
  <clipPath id="pcdaad02203">
   <rect x="77.250888" y="7.895952" width="505.10196" height="327.682008"/>
  </clipPath>
 </defs>
</svg>
